<svg id="visual" viewBox="0 0 960 540" width="960" height="540" xmlns="http://www.w3.org/2000/svg" xmlns:xlink="http://www.w3.org/1999/xlink" version="1.1">
    <path d="M0 447L16 439.7C32 432.3 64 417.7 96 404.5C128 391.3 160 379.7 192 384.8C224 390 256 412 288 399.8C320 387.7 352 341.3 384 328.3C416 315.3 448 335.7 480 343.8C512 352 544 348 576 352.3C608 356.7 640 369.3 672 376.8C704 384.3 736 386.7 768 393C800 399.3 832 409.7 864 418.7C896 427.7 928 435.3 944 439.2L960 443L960 541L944 541C928 541 896 541 864 541C832 541 800 541 768 541C736 541 704 541 672 541C640 541 608 541 576 541C544 541 512 541 480 541C448 541 416 541 384 541C352 541 320 541 288 541C256 541 224 541 192 541C160 541 128 541 96 541C64 541 32 541 16 541L0 541Z" fill="#0050bc"></path>
    <path d="M0 432L16 419.8C32 407.7 64 383.3 96 384C128 384.7 160 410.3 192 416.5C224 422.7 256 409.3 288 413.2C320 417 352 438 384 434.7C416 431.3 448 403.7 480 393.3C512 383 544 390 576 388.8C608 387.7 640 378.3 672 381.7C704 385 736 401 768 395.5C800 390 832 363 864 357C896 351 928 366 944 373.5L960 381L960 541L944 541C928 541 896 541 864 541C832 541 800 541 768 541C736 541 704 541 672 541C640 541 608 541 576 541C544 541 512 541 480 541C448 541 416 541 384 541C352 541 320 541 288 541C256 541 224 541 192 541C160 541 128 541 96 541C64 541 32 541 16 541L0 541Z" fill="#0060cd"></path>
    <path d="M0 469L16 469.7C32 470.3 64 471.7 96 472.7C128 473.7 160 474.3 192 469.2C224 464 256 453 288 450.8C320 448.7 352 455.3 384 452.7C416 450 448 438 480 428.5C512 419 544 412 576 421.7C608 431.3 640 457.7 672 457C704 456.3 736 428.7 768 429C800 429.3 832 457.7 864 455.8C896 454 928 422 944 406L960 390L960 541L944 541C928 541 896 541 864 541C832 541 800 541 768 541C736 541 704 541 672 541C640 541 608 541 576 541C544 541 512 541 480 541C448 541 416 541 384 541C352 541 320 541 288 541C256 541 224 541 192 541C160 541 128 541 96 541C64 541 32 541 16 541L0 541Z" fill="#0071de"></path>
    <path d="M0 452L16 451.2C32 450.3 64 448.7 96 449.2C128 449.7 160 452.3 192 462.2C224 472 256 489 288 483.8C320 478.7 352 451.3 384 445.8C416 440.3 448 456.7 480 469.2C512 481.7 544 490.3 576 496C608 501.7 640 504.3 672 499.3C704 494.3 736 481.7 768 480.2C800 478.7 832 488.3 864 492.5C896 496.7 928 495.3 944 494.7L960 494L960 541L944 541C928 541 896 541 864 541C832 541 800 541 768 541C736 541 704 541 672 541C640 541 608 541 576 541C544 541 512 541 480 541C448 541 416 541 384 541C352 541 320 541 288 541C256 541 224 541 192 541C160 541 128 541 96 541C64 541 32 541 16 541L0 541Z" fill="#0082ef"></path>
    <path d="M0 467L16 474.5C32 482 64 497 96 506.8C128 516.7 160 521.3 192 521.3C224 521.3 256 516.7 288 511C320 505.3 352 498.7 384 501.5C416 504.3 448 516.7 480 518.7C512 520.7 544 512.3 576 504.2C608 496 640 488 672 490C704 492 736 504 768 508.3C800 512.7 832 509.3 864 502.8C896 496.3 928 486.7 944 481.8L960 477L960 541L944 541C928 541 896 541 864 541C832 541 800 541 768 541C736 541 704 541 672 541C640 541 608 541 576 541C544 541 512 541 480 541C448 541 416 541 384 541C352 541 320 541 288 541C256 541 224 541 192 541C160 541 128 541 96 541C64 541 32 541 16 541L0 541Z" fill="#0093ff"></path>
</svg>