<svg id="visual" viewBox="0 0 960 540" width="960" height="540" xmlns="http://www.w3.org/2000/svg" xmlns:xlink="http://www.w3.org/1999/xlink" version="1.1">
    <path d="M0 336L16 336.8C32 337.7 64 339.3 96 345.7C128 352 160 363 192 367.3C224 371.7 256 369.3 288 370.7C320 372 352 377 384 367.5C416 358 448 334 480 336C512 338 544 366 576 377.2C608 388.3 640 382.7 672 371.5C704 360.3 736 343.7 768 330.8C800 318 832 309 864 315.7C896 322.3 928 344.7 944 355.8L960 367L960 541L944 541C928 541 896 541 864 541C832 541 800 541 768 541C736 541 704 541 672 541C640 541 608 541 576 541C544 541 512 541 480 541C448 541 416 541 384 541C352 541 320 541 288 541C256 541 224 541 192 541C160 541 128 541 96 541C64 541 32 541 16 541L0 541Z" fill="#0050bc"></path>
    <path d="M0 429L16 413.7C32 398.3 64 367.7 96 364.5C128 361.3 160 385.7 192 389.8C224 394 256 378 288 372.3C320 366.7 352 371.3 384 376.5C416 381.7 448 387.3 480 384.5C512 381.7 544 370.3 576 364C608 357.7 640 356.3 672 373.5C704 390.7 736 426.3 768 431.5C800 436.7 832 411.3 864 407.8C896 404.3 928 422.7 944 431.8L960 441L960 541L944 541C928 541 896 541 864 541C832 541 800 541 768 541C736 541 704 541 672 541C640 541 608 541 576 541C544 541 512 541 480 541C448 541 416 541 384 541C352 541 320 541 288 541C256 541 224 541 192 541C160 541 128 541 96 541C64 541 32 541 16 541L0 541Z" fill="#0060cd"></path>
    <path d="M0 473L16 462.7C32 452.3 64 431.7 96 421C128 410.3 160 409.7 192 413.2C224 416.7 256 424.3 288 419.3C320 414.3 352 396.7 384 394.8C416 393 448 407 480 407.8C512 408.7 544 396.3 576 397C608 397.7 640 411.3 672 422.2C704 433 736 441 768 445.5C800 450 832 451 864 439.7C896 428.3 928 404.7 944 392.8L960 381L960 541L944 541C928 541 896 541 864 541C832 541 800 541 768 541C736 541 704 541 672 541C640 541 608 541 576 541C544 541 512 541 480 541C448 541 416 541 384 541C352 541 320 541 288 541C256 541 224 541 192 541C160 541 128 541 96 541C64 541 32 541 16 541L0 541Z" fill="#0071de"></path>
    <path d="M0 477L16 467C32 457 64 437 96 434C128 431 160 445 192 455C224 465 256 471 288 476C320 481 352 485 384 478.3C416 471.7 448 454.3 480 443.5C512 432.7 544 428.3 576 425C608 421.7 640 419.3 672 419.8C704 420.3 736 423.7 768 438.8C800 454 832 481 864 479.3C896 477.7 928 447.3 944 432.2L960 417L960 541L944 541C928 541 896 541 864 541C832 541 800 541 768 541C736 541 704 541 672 541C640 541 608 541 576 541C544 541 512 541 480 541C448 541 416 541 384 541C352 541 320 541 288 541C256 541 224 541 192 541C160 541 128 541 96 541C64 541 32 541 16 541L0 541Z" fill="#0082ef"></path>
    <path d="M0 485L16 485.3C32 485.7 64 486.3 96 488.8C128 491.3 160 495.7 192 502.8C224 510 256 520 288 517.7C320 515.3 352 500.7 384 496.8C416 493 448 500 480 507.3C512 514.7 544 522.3 576 515.5C608 508.7 640 487.3 672 485C704 482.7 736 499.3 768 503.7C800 508 832 500 864 493.8C896 487.7 928 483.3 944 481.2L960 479L960 541L944 541C928 541 896 541 864 541C832 541 800 541 768 541C736 541 704 541 672 541C640 541 608 541 576 541C544 541 512 541 480 541C448 541 416 541 384 541C352 541 320 541 288 541C256 541 224 541 192 541C160 541 128 541 96 541C64 541 32 541 16 541L0 541Z" fill="#0093ff"></path>
</svg>