<svg id="visual" viewBox="0 0 900 600" width="900" height="600" xmlns="http://www.w3.org/2000/svg" xmlns:xlink="http://www.w3.org/1999/xlink" version="1.1">
    <path d="M0 373L21.5 369.2C43 365.3 86 357.7 128.8 357.5C171.7 357.3 214.3 364.7 257.2 365.8C300 367 343 362 385.8 365.8C428.7 369.7 471.3 382.3 514.2 397.7C557 413 600 431 642.8 433.7C685.7 436.3 728.3 423.7 771.2 421.7C814 419.7 857 428.3 878.5 432.7L900 437L900 601L878.5 601C857 601 814 601 771.2 601C728.3 601 685.7 601 642.8 601C600 601 557 601 514.2 601C471.3 601 428.7 601 385.8 601C343 601 300 601 257.2 601C214.3 601 171.7 601 128.8 601C86 601 43 601 21.5 601L0 601Z" fill="#083266"></path>
    <path d="M0 456L21.5 456.8C43 457.7 86 459.3 128.8 463.2C171.7 467 214.3 473 257.2 469.8C300 466.7 343 454.3 385.8 441.5C428.7 428.7 471.3 415.3 514.2 414.3C557 413.3 600 424.7 642.8 429.5C685.7 434.3 728.3 432.7 771.2 434.3C814 436 857 441 878.5 443.5L900 446L900 601L878.5 601C857 601 814 601 771.2 601C728.3 601 685.7 601 642.8 601C600 601 557 601 514.2 601C471.3 601 428.7 601 385.8 601C343 601 300 601 257.2 601C214.3 601 171.7 601 128.8 601C86 601 43 601 21.5 601L0 601Z" fill="#022d6b"></path>
    <path d="M0 498L21.5 497.7C43 497.3 86 496.7 128.8 486.8C171.7 477 214.3 458 257.2 448.2C300 438.3 343 437.7 385.8 444.2C428.7 450.7 471.3 464.3 514.2 476.2C557 488 600 498 642.8 497.2C685.7 496.3 728.3 484.7 771.2 479C814 473.3 857 473.7 878.5 473.8L900 474L900 601L878.5 601C857 601 814 601 771.2 601C728.3 601 685.7 601 642.8 601C600 601 557 601 514.2 601C471.3 601 428.7 601 385.8 601C343 601 300 601 257.2 601C214.3 601 171.7 601 128.8 601C86 601 43 601 21.5 601L0 601Z" fill="#06276e"></path>
    <path d="M0 499L21.5 505.2C43 511.3 86 523.7 128.8 530.7C171.7 537.7 214.3 539.3 257.2 539.7C300 540 343 539 385.8 530C428.7 521 471.3 504 514.2 504C557 504 600 521 642.8 519.8C685.7 518.7 728.3 499.3 771.2 498.8C814 498.3 857 516.7 878.5 525.8L900 535L900 601L878.5 601C857 601 814 601 771.2 601C728.3 601 685.7 601 642.8 601C600 601 557 601 514.2 601C471.3 601 428.7 601 385.8 601C343 601 300 601 257.2 601C214.3 601 171.7 601 128.8 601C86 601 43 601 21.5 601L0 601Z" fill="#131f70"></path>
    <path d="M0 528L21.5 530.5C43 533 86 538 128.8 539.2C171.7 540.3 214.3 537.7 257.2 538.7C300 539.7 343 544.3 385.8 543.7C428.7 543 471.3 537 514.2 538.5C557 540 600 549 642.8 555.7C685.7 562.3 728.3 566.7 771.2 568.5C814 570.3 857 569.7 878.5 569.3L900 569L900 601L878.5 601C857 601 814 601 771.2 601C728.3 601 685.7 601 642.8 601C600 601 557 601 514.2 601C471.3 601 428.7 601 385.8 601C343 601 300 601 257.2 601C214.3 601 171.7 601 128.8 601C86 601 43 601 21.5 601L0 601Z" fill="#211471"></path>
</svg>